<svg xmlns="http://www.w3.org/2000/svg" width="36" height="36" viewBox="0 0 36 36">
    <g id="Group_9975" data-name="Group 9975" transform="translate(-13842.999 12182)">
        <g id="Group_9974" data-name="Group 9974" transform="translate(12934.221 -13012.778)">
            <rect id="Rectangle_7974" data-name="Rectangle 7974" width="36" height="36" rx="5" transform="translate(908.779 830.779)" fill="#0a214a"/>
        </g>
        <path id="Path_8667" data-name="Path 8667" d="M20,6H12L10,4H4A1.985,1.985,0,0,0,2.01,6L2,18a1.993,1.993,0,0,0,2,2H20a1.993,1.993,0,0,0,2-2V8A1.993,1.993,0,0,0,20,6Zm-1,8H16v3H14V14H11V12h3V9h2v3h3Z" transform="translate(13849 -12176)" fill="#fff"/>
    </g>
</svg>
