<svg xmlns="http://www.w3.org/2000/svg" width="172.455" height="180" viewBox="0 0 172.455 180">
  <g id="Group_625" data-name="Group 625" transform="translate(-1225.865 -404.458)">
    <g id="Group_625-2" data-name="Group 625" transform="translate(1225.865 404.458)">
      <ellipse id="Ellipse_85" data-name="Ellipse 85" cx="81.481" cy="83.1" rx="81.481" ry="83.1" transform="translate(4.087 0)" fill="#c1c1c1" style="mix-blend-mode: multiply;isolation: isolate"/>
      <ellipse id="Ellipse_86" data-name="Ellipse 86" cx="81.481" cy="79.086" rx="81.481" ry="79.086" transform="translate(4.245 0.905)" fill="#02c39e"/>
      <path id="Path_353" data-name="Path 353" d="M1067.317,396.085a9.743,9.743,0,0,0,4.168-1.122c35.98-18.189,47.765-28.207,47.765-51.447V296.073c0-6.412-3.045-8.415-7.934-10.5-6.411-2.725-32.376-12.021-38.707-14.184a16.993,16.993,0,0,0-5.292-.883,19.786,19.786,0,0,0-5.37.881c-6.41,1.924-32.3,11.541-38.707,14.188-4.888,2-7.931,4.086-7.931,10.5v47.443c0,23.241,12.5,31.975,47.844,51.45A8.285,8.285,0,0,0,1067.317,396.085Zm-23.481-40.148V330.292c0-4.407,1.843-6.652,5.369-6.972v-7.294c0-12.26,7.372-20.515,18.112-20.515s18.031,8.255,18.031,20.515v7.294c3.606.32,5.45,2.565,5.45,6.972v25.645c0,4.728-2.163,6.972-6.567,6.972h-33.822C1045.92,362.909,1043.836,360.665,1043.836,355.937Zm12.9-32.7h21.077v-8.094c0-7.372-4.167-12.421-10.5-12.421s-10.578,5.049-10.578,12.421Z" transform="translate(-981.756 -249.644)" fill="#fff"/>
      <rect id="Rectangle_421" data-name="Rectangle 421" width="172.455" height="53.458" rx="21.228" transform="translate(0 126.542)" fill="#0a214a"/>
      <text id="SUCCESS" transform="translate(34.865 161.542)" fill="#02c39e" font-size="24" font-family="Helvetica-Bold, Helvetica" font-weight="700"><tspan x="0" y="0">SUCCESS</tspan></text>
    </g>
  </g>
</svg>
