<svg xmlns="http://www.w3.org/2000/svg" width="226.37" height="180.05" viewBox="0 0 226.37 180.05">
  <g id="Group_622" data-name="Group 622" transform="translate(-847 -250.258)">
    <rect id="Rectangle_418" data-name="Rectangle 418" width="219.742" height="121.643" transform="translate(850.485 260.137)" fill="#40c2d3"/>
    <ellipse id="Ellipse_57" data-name="Ellipse 57" cx="86.498" cy="9.707" rx="86.498" ry="9.707" transform="translate(873.687 410.895)" fill="#8fdce2"/>
    <g id="Group_621" data-name="Group 621" transform="translate(0 2)">
      <ellipse id="Ellipse_58" data-name="Ellipse 58" cx="42.516" cy="43.365" rx="42.516" ry="43.365" transform="translate(918.287 273.217)" fill="#c1c1c1" style="mix-blend-mode: multiply;isolation: isolate"/>
      <ellipse id="Ellipse_59" data-name="Ellipse 59" cx="42.516" cy="41.28" rx="42.516" ry="41.28" transform="translate(918.369 273.687)" fill="#0a214a"/>
      <path id="Path_353" data-name="Path 353" d="M1042.322,335.732a5.06,5.06,0,0,0,2.165-.583c18.688-9.448,24.809-14.651,24.809-26.722V283.786c0-3.33-1.582-4.371-4.121-5.453-3.33-1.415-16.816-6.244-20.1-7.367a8.825,8.825,0,0,0-2.749-.458,10.278,10.278,0,0,0-2.789.458c-3.329,1-16.774,5.995-20.1,7.369-2.539,1.04-4.119,2.122-4.119,5.452v24.642c0,12.071,6.494,16.608,24.85,26.723A4.3,4.3,0,0,0,1042.322,335.732Zm-12.2-20.853v-13.32c0-2.289.957-3.455,2.789-3.621V294.15c0-6.368,3.829-10.656,9.407-10.656s9.365,4.288,9.365,10.656v3.789c1.873.166,2.831,1.332,2.831,3.621v13.32c0,2.456-1.124,3.621-3.411,3.621h-17.567C1031.208,318.5,1030.126,317.335,1030.126,314.879Zm6.7-16.983h10.947v-4.2c0-3.829-2.164-6.452-5.453-6.452s-5.494,2.622-5.494,6.452Z" transform="translate(-81.528 13.546)" fill="#fbb617"/>
      <rect id="Rectangle_419" data-name="Rectangle 419" width="89.962" height="27.766" rx="13.883" transform="translate(915.857 339.585)" fill="#0a214a"/>
      <g id="Group_3" data-name="Group 3" transform="translate(928.96 356.185)" style="mix-blend-mode: multiply;isolation: isolate">
        <g id="Ellipse_1" data-name="Ellipse 1">
          <ellipse id="Ellipse_60" data-name="Ellipse 60" cx="3.494" cy="3.732" rx="3.494" ry="3.732" fill="#c1c1c1"/>
          <ellipse id="Ellipse_61" data-name="Ellipse 61" cx="3.275" cy="3.499" rx="3.275" ry="3.499" transform="translate(0.218 0.233)" fill="#c1c1c1"/>
        </g>
        <g id="Ellipse_8" data-name="Ellipse 8" transform="translate(34.062)">
          <ellipse id="Ellipse_62" data-name="Ellipse 62" cx="3.494" cy="3.732" rx="3.494" ry="3.732" fill="#c1c1c1"/>
          <ellipse id="Ellipse_63" data-name="Ellipse 63" cx="3.275" cy="3.499" rx="3.275" ry="3.499" transform="translate(0.218 0.233)" fill="#c1c1c1"/>
        </g>
        <g id="Ellipse_4" data-name="Ellipse 4" transform="translate(11.354)">
          <ellipse id="Ellipse_64" data-name="Ellipse 64" cx="3.494" cy="3.732" rx="3.494" ry="3.732" fill="#c1c1c1"/>
          <ellipse id="Ellipse_65" data-name="Ellipse 65" cx="3.275" cy="3.499" rx="3.275" ry="3.499" transform="translate(0.218 0.233)" fill="#c1c1c1"/>
        </g>
        <g id="Ellipse_7" data-name="Ellipse 7" transform="translate(45.415)">
          <ellipse id="Ellipse_66" data-name="Ellipse 66" cx="3.494" cy="3.732" rx="3.494" ry="3.732" fill="#c1c1c1"/>
          <ellipse id="Ellipse_67" data-name="Ellipse 67" cx="3.275" cy="3.499" rx="3.275" ry="3.499" transform="translate(0.218 0.233)" fill="#c1c1c1"/>
        </g>
        <g id="Ellipse_5" data-name="Ellipse 5" transform="translate(22.708)">
          <ellipse id="Ellipse_68" data-name="Ellipse 68" cx="3.494" cy="3.732" rx="3.494" ry="3.732" fill="#c1c1c1"/>
          <ellipse id="Ellipse_69" data-name="Ellipse 69" cx="3.275" cy="3.499" rx="3.275" ry="3.499" transform="translate(0.218 0.233)" fill="#c1c1c1"/>
        </g>
        <g id="Ellipse_6" data-name="Ellipse 6" transform="translate(56.769)">
          <ellipse id="Ellipse_70" data-name="Ellipse 70" cx="3.494" cy="3.732" rx="3.494" ry="3.732" fill="#c1c1c1"/>
          <ellipse id="Ellipse_71" data-name="Ellipse 71" cx="3.275" cy="3.499" rx="3.275" ry="3.499" transform="translate(0.218 0.233)" fill="#c1c1c1"/>
        </g>
      </g>
      <g id="Group_3-2" data-name="Group 3" transform="translate(928.96 356.134)">
        <g id="Ellipse_1-2" data-name="Ellipse 1">
          <circle id="Ellipse_72" data-name="Ellipse 72" cx="3.494" cy="3.494" r="3.494" fill="#fbb617"/>
          <circle id="Ellipse_73" data-name="Ellipse 73" cx="3.275" cy="3.275" r="3.275" transform="translate(0.218 0.218)" fill="#fbb617"/>
        </g>
        <g id="Ellipse_8-2" data-name="Ellipse 8" transform="translate(34.062)">
          <circle id="Ellipse_74" data-name="Ellipse 74" cx="3.494" cy="3.494" r="3.494" fill="#fbb617"/>
          <circle id="Ellipse_75" data-name="Ellipse 75" cx="3.275" cy="3.275" r="3.275" transform="translate(0.218 0.218)" fill="#fbb617"/>
        </g>
        <g id="Ellipse_4-2" data-name="Ellipse 4" transform="translate(11.354)">
          <circle id="Ellipse_76" data-name="Ellipse 76" cx="3.494" cy="3.494" r="3.494" fill="#fbb617"/>
          <circle id="Ellipse_77" data-name="Ellipse 77" cx="3.275" cy="3.275" r="3.275" transform="translate(0.218 0.218)" fill="#fbb617"/>
        </g>
        <g id="Ellipse_7-2" data-name="Ellipse 7" transform="translate(45.415)">
          <circle id="Ellipse_78" data-name="Ellipse 78" cx="3.494" cy="3.494" r="3.494" fill="#fbb617"/>
          <circle id="Ellipse_79" data-name="Ellipse 79" cx="3.275" cy="3.275" r="3.275" transform="translate(0.218 0.218)" fill="#fbb617"/>
        </g>
        <g id="Ellipse_5-2" data-name="Ellipse 5" transform="translate(22.708)">
          <circle id="Ellipse_80" data-name="Ellipse 80" cx="3.494" cy="3.494" r="3.494" fill="#fbb617"/>
          <circle id="Ellipse_81" data-name="Ellipse 81" cx="3.275" cy="3.275" r="3.275" transform="translate(0.218 0.218)" fill="#fbb617"/>
        </g>
        <g id="Ellipse_6-2" data-name="Ellipse 6" transform="translate(56.769)">
          <circle id="Ellipse_82" data-name="Ellipse 82" cx="3.494" cy="3.494" r="3.494" fill="#fbb617"/>
          <circle id="Ellipse_83" data-name="Ellipse 83" cx="3.275" cy="3.275" r="3.275" transform="translate(0.218 0.218)" fill="#fbb617"/>
        </g>
      </g>
      <text id="PASSWORD" transform="translate(928.781 352.094)" fill="#fbb617" font-size="12" font-family="Helvetica-Bold, Helvetica" font-weight="700"><tspan x="0" y="0">PASSWORD</tspan></text>
    </g>
    <g id="Group_617" data-name="Group 617" transform="translate(884.062 388.781)">
      <rect id="Rectangle_403" data-name="Rectangle 403" width="152.247" height="11.237" rx="3.71" transform="translate(0 23.279)" fill="#0a214a"/>
      <path id="Path_816" data-name="Path 816" d="M1065.789,454.724h-41.74l8.648-24.082h24.081Z" transform="translate(-968.613 -430.642)" fill="#0a214a"/>
    </g>
    <path id="Path_817" data-name="Path 817" d="M1101.842,218.832H889.759a7.131,7.131,0,0,0-7.144,7.119h0V355.72a7.131,7.131,0,0,0,7.144,7.119h212.083a7.132,7.132,0,0,0,7.144-7.119h0V225.946A7.131,7.131,0,0,0,1101.842,218.832Zm-.115,125.072H889.872V237.764H1101.72Z" transform="translate(-35.615 31.426)" fill="#0a214a"/>
  </g>
</svg>
